<svg xmlns="http://www.w3.org/2000/svg" width="900" height="600" viewBox="0 0 900 600">
  <rect width="900" height="600" fill="#039"/>
  <g fill="#fc0" transform="translate(450,300)">
    <!-- 12 five-pointed stars at 30° intervals, radius 200 from center -->
    <g transform="translate(0,-200)"><polygon points="0,-22 5.73,-6.81 22,-6.81 9.14,4.47 13.82,20.81 0,11.69 -13.82,20.81 -9.14,4.47 -22,-6.81 -5.73,-6.81"/></g>
    <g transform="rotate(30) translate(0,-200) rotate(-30)"><polygon points="0,-22 5.73,-6.81 22,-6.81 9.14,4.47 13.82,20.81 0,11.69 -13.82,20.81 -9.14,4.47 -22,-6.81 -5.73,-6.81"/></g>
    <g transform="rotate(60) translate(0,-200) rotate(-60)"><polygon points="0,-22 5.73,-6.81 22,-6.81 9.14,4.47 13.82,20.81 0,11.69 -13.82,20.81 -9.14,4.47 -22,-6.81 -5.73,-6.81"/></g>
    <g transform="rotate(90) translate(0,-200) rotate(-90)"><polygon points="0,-22 5.73,-6.81 22,-6.81 9.14,4.47 13.82,20.81 0,11.69 -13.82,20.81 -9.14,4.47 -22,-6.81 -5.73,-6.81"/></g>
    <g transform="rotate(120) translate(0,-200) rotate(-120)"><polygon points="0,-22 5.73,-6.81 22,-6.81 9.14,4.47 13.82,20.81 0,11.69 -13.82,20.81 -9.14,4.47 -22,-6.81 -5.73,-6.81"/></g>
    <g transform="rotate(150) translate(0,-200) rotate(-150)"><polygon points="0,-22 5.73,-6.81 22,-6.81 9.14,4.47 13.82,20.81 0,11.69 -13.82,20.81 -9.14,4.47 -22,-6.81 -5.73,-6.81"/></g>
    <g transform="rotate(180) translate(0,-200) rotate(-180)"><polygon points="0,-22 5.73,-6.81 22,-6.81 9.14,4.47 13.82,20.81 0,11.69 -13.82,20.81 -9.14,4.47 -22,-6.81 -5.73,-6.81"/></g>
    <g transform="rotate(210) translate(0,-200) rotate(-210)"><polygon points="0,-22 5.73,-6.81 22,-6.81 9.14,4.47 13.82,20.81 0,11.69 -13.82,20.81 -9.14,4.47 -22,-6.81 -5.73,-6.81"/></g>
    <g transform="rotate(240) translate(0,-200) rotate(-240)"><polygon points="0,-22 5.73,-6.81 22,-6.81 9.14,4.47 13.82,20.81 0,11.69 -13.82,20.81 -9.14,4.47 -22,-6.81 -5.73,-6.81"/></g>
    <g transform="rotate(270) translate(0,-200) rotate(-270)"><polygon points="0,-22 5.73,-6.81 22,-6.81 9.14,4.47 13.82,20.81 0,11.69 -13.82,20.81 -9.14,4.47 -22,-6.81 -5.73,-6.81"/></g>
    <g transform="rotate(300) translate(0,-200) rotate(-300)"><polygon points="0,-22 5.73,-6.81 22,-6.81 9.14,4.47 13.82,20.81 0,11.69 -13.82,20.81 -9.14,4.47 -22,-6.81 -5.73,-6.81"/></g>
    <g transform="rotate(330) translate(0,-200) rotate(-330)"><polygon points="0,-22 5.73,-6.81 22,-6.81 9.14,4.47 13.82,20.81 0,11.69 -13.82,20.81 -9.14,4.47 -22,-6.81 -5.73,-6.81"/></g>
  </g>
</svg>
