<svg xmlns="http://www.w3.org/2000/svg" xmlns:xlink="http://www.w3.org/1999/xlink" width="2000" zoomAndPan="magnify" viewBox="0 0 1500 1499.999933" height="2000" preserveAspectRatio="xMidYMid meet" version="1.0"><defs><clipPath id="97858bd612"><path d="M 229.980469 206.15625 L 1270.019531 206.15625 L 1270.019531 1246.195312 L 229.980469 1246.195312 Z M 229.980469 206.15625 " clip-rule="nonzero"/></clipPath><clipPath id="56b5eee8b7"><path d="M 750 206.15625 C 462.800781 206.15625 229.980469 438.976562 229.980469 726.175781 C 229.980469 1013.375 462.800781 1246.195312 750 1246.195312 C 1037.199219 1246.195312 1270.019531 1013.375 1270.019531 726.175781 C 1270.019531 438.976562 1037.199219 206.15625 750 206.15625 Z M 750 206.15625 " clip-rule="nonzero"/></clipPath><clipPath id="5a129b7e08"><path d="M 0.980469 0.15625 L 1041.019531 0.15625 L 1041.019531 1040.195312 L 0.980469 1040.195312 Z M 0.980469 0.15625 " clip-rule="nonzero"/></clipPath><clipPath id="4f21f03904"><path d="M 521 0.15625 C 233.800781 0.15625 0.980469 232.976562 0.980469 520.175781 C 0.980469 807.375 233.800781 1040.195312 521 1040.195312 C 808.199219 1040.195312 1041.019531 807.375 1041.019531 520.175781 C 1041.019531 232.976562 808.199219 0.15625 521 0.15625 Z M 521 0.15625 " clip-rule="nonzero"/></clipPath><clipPath id="60d505cd96"><rect x="0" width="1042" y="0" height="1041"/></clipPath><clipPath id="b557f5762f"><path d="M 516 410 L 970 410 L 970 1087 L 516 1087 Z M 516 410 " clip-rule="nonzero"/></clipPath><clipPath id="4006b4c0de"><path d="M 678.921875 345.566406 L 983.660156 412.496094 L 820.679688 1154.558594 L 515.941406 1087.632812 Z M 678.921875 345.566406 " clip-rule="nonzero"/></clipPath><clipPath id="42a39a2179"><path d="M 678.921875 345.566406 L 983.660156 412.496094 L 820.679688 1154.558594 L 515.941406 1087.632812 Z M 678.921875 345.566406 " clip-rule="nonzero"/></clipPath></defs><g clip-path="url(#97858bd612)"><g clip-path="url(#56b5eee8b7)"><g transform="matrix(1, 0, 0, 1, 229, 206)"><g clip-path="url(#60d505cd96)"><g clip-path="url(#5a129b7e08)"><g clip-path="url(#4f21f03904)"><path fill="#f97316" d="M 0.980469 0.15625 L 1041.019531 0.15625 L 1041.019531 1040.195312 L 0.980469 1040.195312 Z M 0.980469 0.15625 " fill-opacity="1" fill-rule="nonzero"/></g></g></g></g></g></g><g clip-path="url(#b557f5762f)"><g clip-path="url(#4006b4c0de)"><g clip-path="url(#42a39a2179)"><path fill="#ffffff" d="M 902.015625 785.875 L 787.6875 719.082031 L 969.066406 410.707031 L 607.664062 739.890625 L 719.761719 794.167969 L 516.285156 1086.074219 Z M 902.015625 785.875 " fill-opacity="1" fill-rule="nonzero"/></g></g></g></svg>