<svg xmlns="http://www.w3.org/2000/svg" xmlns:xlink="http://www.w3.org/1999/xlink" width="2500" zoomAndPan="magnify" viewBox="0 0 1874.88 1499.999933" height="2000" preserveAspectRatio="xMidYMid meet" version="1.0"><defs><g/><clipPath id="b255d5c57e"><path d="M 63.191406 663.203125 L 236.789062 663.203125 L 236.789062 836.796875 L 63.191406 836.796875 Z M 63.191406 663.203125 " clip-rule="nonzero"/></clipPath><clipPath id="ff477fef6d"><path d="M 149.992188 663.203125 C 102.054688 663.203125 63.191406 702.0625 63.191406 750 C 63.191406 797.9375 102.054688 836.796875 149.992188 836.796875 C 197.925781 836.796875 236.789062 797.9375 236.789062 750 C 236.789062 702.0625 197.925781 663.203125 149.992188 663.203125 Z M 149.992188 663.203125 " clip-rule="nonzero"/></clipPath><clipPath id="d6cd14a8e9"><path d="M 0.191406 0.203125 L 173.789062 0.203125 L 173.789062 173.796875 L 0.191406 173.796875 Z M 0.191406 0.203125 " clip-rule="nonzero"/></clipPath><clipPath id="e0797d7720"><path d="M 86.992188 0.203125 C 39.054688 0.203125 0.191406 39.0625 0.191406 87 C 0.191406 134.9375 39.054688 173.796875 86.992188 173.796875 C 134.925781 173.796875 173.789062 134.9375 173.789062 87 C 173.789062 39.0625 134.925781 0.203125 86.992188 0.203125 Z M 86.992188 0.203125 " clip-rule="nonzero"/></clipPath><clipPath id="b0cddce040"><rect x="0" width="174" y="0" height="174"/></clipPath><clipPath id="089358a715"><path d="M 110 695 L 186 695 L 186 807 L 110 807 Z M 110 695 " clip-rule="nonzero"/></clipPath><clipPath id="577c0d4b2a"><path d="M 137.671875 684.519531 L 188.210938 695.621094 L 161.347656 817.945312 L 110.804688 806.847656 Z M 137.671875 684.519531 " clip-rule="nonzero"/></clipPath><clipPath id="be17f35024"><path d="M 137.671875 684.519531 L 188.210938 695.621094 L 161.347656 817.945312 L 110.804688 806.847656 Z M 137.671875 684.519531 " clip-rule="nonzero"/></clipPath></defs><g clip-path="url(#b255d5c57e)"><g clip-path="url(#ff477fef6d)"><g transform="matrix(1, 0, 0, 1, 63, 663)"><g clip-path="url(#b0cddce040)"><g clip-path="url(#d6cd14a8e9)"><g clip-path="url(#e0797d7720)"><path fill="#f97316" d="M 0.191406 0.203125 L 173.789062 0.203125 L 173.789062 173.796875 L 0.191406 173.796875 Z M 0.191406 0.203125 " fill-opacity="1" fill-rule="nonzero"/></g></g></g></g></g></g><g clip-path="url(#089358a715)"><g clip-path="url(#577c0d4b2a)"><g clip-path="url(#be17f35024)"><path fill="#ffffff" d="M 174.367188 756.957031 L 155.5625 745.96875 L 185.398438 695.242188 L 125.945312 749.394531 L 144.386719 758.324219 L 110.914062 806.34375 Z M 174.367188 756.957031 " fill-opacity="1" fill-rule="nonzero"/></g></g></g><g fill="#1b1b1b" fill-opacity="1"><g transform="translate(272.081022, 812.553637)"><g><path d="M 8.375 0 L 8.375 -16.15625 L 59.484375 -86.078125 C 62.578125 -90.273438 65.945312 -94.484375 69.59375 -98.703125 C 73.238281 -102.929688 76.910156 -107.144531 80.609375 -111.34375 L 82.765625 -103.0625 C 77.296875 -102.675781 71.828125 -102.441406 66.359375 -102.359375 C 60.890625 -102.273438 55.421875 -102.234375 49.953125 -102.234375 L 8.609375 -102.234375 L 8.609375 -123.4375 L 103.0625 -123.4375 L 103.0625 -107.203125 L 52.9375 -38.4375 C 49.675781 -34.019531 46.15625 -29.613281 42.375 -25.21875 C 38.59375 -20.832031 34.796875 -16.457031 30.984375 -12.09375 L 28.828125 -20.375 C 34.460938 -20.757812 40.097656 -20.992188 45.734375 -21.078125 C 51.367188 -21.160156 57 -21.203125 62.625 -21.203125 L 103.390625 -21.203125 L 103.390625 0 Z M 8.375 0 "/></g></g><g transform="translate(383.679861, 812.553637)"><g><path d="M 10.6875 0 L 10.6875 -123.4375 L 94.6875 -123.4375 L 94.6875 -102.234375 L 36.03125 -102.234375 L 36.03125 -72.734375 L 90.21875 -72.734375 L 90.21875 -51.953125 L 36.03125 -51.953125 L 36.03125 -21.203125 L 94.78125 -21.203125 L 94.78125 0 Z M 10.6875 0 "/></g></g><g transform="translate(486.74516, 812.553637)"><g><path d="M 61.5625 1.734375 C 51.34375 1.734375 42.421875 -0.140625 34.796875 -3.890625 C 27.171875 -7.648438 21.242188 -12.910156 17.015625 -19.671875 C 12.796875 -26.441406 10.6875 -34.300781 10.6875 -43.25 L 10.6875 -123.4375 L 35.875 -123.4375 L 35.875 -45.3125 C 35.875 -40.507812 36.9375 -36.242188 39.0625 -32.515625 C 41.1875 -28.785156 44.179688 -25.859375 48.046875 -23.734375 C 51.910156 -21.609375 56.414062 -20.546875 61.5625 -20.546875 C 66.75 -20.546875 71.257812 -21.609375 75.09375 -23.734375 C 78.9375 -25.859375 81.921875 -28.785156 84.046875 -32.515625 C 86.171875 -36.242188 87.234375 -40.507812 87.234375 -45.3125 L 87.234375 -123.4375 L 112.5 -123.4375 L 112.5 -43.25 C 112.5 -34.300781 110.382812 -26.441406 106.15625 -19.671875 C 101.9375 -12.910156 96 -7.648438 88.34375 -3.890625 C 80.695312 -0.140625 71.769531 1.734375 61.5625 1.734375 Z M 61.5625 1.734375 "/></g></g><g transform="translate(609.86014, 812.553637)"><g><path d="M 56.34375 1.828125 C 46.289062 1.828125 37.585938 0.28125 30.234375 -2.8125 C 22.890625 -5.90625 17.1875 -10.472656 13.125 -16.515625 C 9.070312 -22.566406 6.960938 -29.984375 6.796875 -38.765625 L 31.40625 -38.765625 C 31.625 -34.566406 32.804688 -31.019531 34.953125 -28.125 C 37.109375 -25.226562 40.007812 -23.046875 43.65625 -21.578125 C 47.300781 -20.117188 51.472656 -19.390625 56.171875 -19.390625 C 60.703125 -19.390625 64.664062 -20.050781 68.0625 -21.375 C 71.457031 -22.695312 74.09375 -24.546875 75.96875 -26.921875 C 77.84375 -29.296875 78.78125 -32.03125 78.78125 -35.125 C 78.78125 -37.945312 77.96875 -40.320312 76.34375 -42.25 C 74.71875 -44.1875 72.316406 -45.84375 69.140625 -47.21875 C 65.960938 -48.601562 62.023438 -49.820312 57.328125 -50.875 L 43.90625 -54.1875 C 33.082031 -56.726562 24.703125 -60.742188 18.765625 -66.234375 C 12.828125 -71.734375 9.859375 -78.957031 9.859375 -87.90625 C 9.859375 -95.351562 11.859375 -101.867188 15.859375 -107.453125 C 19.867188 -113.035156 25.363281 -117.382812 32.34375 -120.5 C 39.332031 -123.625 47.359375 -125.1875 56.421875 -125.1875 C 65.585938 -125.1875 73.582031 -123.609375 80.40625 -120.453125 C 87.226562 -117.304688 92.539062 -112.914062 96.34375 -107.28125 C 100.15625 -101.65625 102.144531 -95.113281 102.3125 -87.65625 L 77.953125 -87.65625 C 77.515625 -92.789062 75.375 -96.789062 71.53125 -99.65625 C 67.695312 -102.53125 62.601562 -103.96875 56.25 -103.96875 C 52 -103.96875 48.328125 -103.347656 45.234375 -102.109375 C 42.140625 -100.867188 39.773438 -99.15625 38.140625 -96.96875 C 36.515625 -94.789062 35.703125 -92.289062 35.703125 -89.46875 C 35.703125 -86.539062 36.570312 -84.097656 38.3125 -82.140625 C 40.050781 -80.179688 42.453125 -78.550781 45.515625 -77.25 C 48.585938 -75.957031 52.03125 -74.867188 55.84375 -73.984375 L 67.109375 -71.25 C 72.578125 -70.03125 77.585938 -68.410156 82.140625 -66.390625 C 86.703125 -64.378906 90.640625 -61.9375 93.953125 -59.0625 C 97.265625 -56.195312 99.800781 -52.800781 101.5625 -48.875 C 103.332031 -44.957031 104.21875 -40.484375 104.21875 -35.453125 C 104.21875 -27.890625 102.3125 -21.304688 98.5 -15.703125 C 94.695312 -10.097656 89.234375 -5.773438 82.109375 -2.734375 C 74.984375 0.304688 66.394531 1.828125 56.34375 1.828125 Z M 56.34375 1.828125 "/></g></g><g transform="translate(720.879031, 812.553637)"><g/></g></g><g fill="#f97316" fill-opacity="1"><g transform="translate(760.241167, 812.553637)"><g><path d="M 3.140625 0 L 23.609375 -123.4375 L 72 -123.4375 C 81.382812 -123.4375 89.097656 -121.78125 95.140625 -118.46875 C 101.191406 -115.15625 105.472656 -110.472656 107.984375 -104.421875 C 110.503906 -98.378906 111.097656 -91.296875 109.765625 -83.171875 C 108.390625 -75.054688 105.421875 -68.054688 100.859375 -62.171875 C 96.304688 -56.296875 90.398438 -51.769531 83.140625 -48.59375 C 75.878906 -45.414062 67.5 -43.828125 58 -43.828125 L 25.4375 -43.828125 L 28.828125 -64.296875 L 58.234375 -64.296875 C 63.265625 -64.296875 67.570312 -65.023438 71.15625 -66.484375 C 74.75 -67.953125 77.609375 -70.109375 79.734375 -72.953125 C 81.867188 -75.796875 83.265625 -79.234375 83.921875 -83.265625 C 84.972656 -89.503906 83.851562 -94.265625 80.5625 -97.546875 C 77.28125 -100.835938 71.9375 -102.484375 64.53125 -102.484375 L 45.484375 -102.484375 L 28.5 0 Z M 72.328125 0 L 52.03125 -56.09375 L 79.03125 -56.09375 L 100 0 Z M 72.328125 0 "/></g></g><g transform="translate(871.425758, 812.553637)"><g><path d="M 3.140625 0 L 23.609375 -123.4375 L 107.53125 -123.4375 L 104.0625 -102.3125 L 45.40625 -102.3125 L 40.515625 -72.734375 L 94.6875 -72.734375 L 91.21875 -52.03125 L 37.03125 -52.03125 L 31.984375 -21.125 L 90.71875 -21.125 L 87.234375 0 Z M 3.140625 0 "/></g></g><g transform="translate(975.071005, 812.553637)"><g><path d="M 49.953125 1.828125 C 39.960938 1.828125 31.40625 0.28125 24.28125 -2.8125 C 17.15625 -5.90625 11.945312 -10.488281 8.65625 -16.5625 C 5.375 -22.644531 4.335938 -30.046875 5.546875 -38.765625 L 30.15625 -38.765625 C 29.71875 -34.566406 30.328125 -31.019531 31.984375 -28.125 C 33.640625 -25.226562 36.148438 -23.046875 39.515625 -21.578125 C 42.890625 -20.117188 46.953125 -19.390625 51.703125 -19.390625 C 56.222656 -19.390625 60.304688 -20.050781 63.953125 -21.375 C 67.597656 -22.695312 70.566406 -24.546875 72.859375 -26.921875 C 75.148438 -29.296875 76.546875 -32.085938 77.046875 -35.296875 C 77.546875 -38.054688 77.144531 -40.390625 75.84375 -42.296875 C 74.550781 -44.203125 72.441406 -45.84375 69.515625 -47.21875 C 66.585938 -48.601562 62.859375 -49.847656 58.328125 -50.953125 L 45.40625 -54.1875 C 35.238281 -56.726562 27.554688 -60.726562 22.359375 -66.1875 C 17.171875 -71.65625 15.320312 -79.003906 16.8125 -88.234375 C 18.03125 -95.628906 20.972656 -102.085938 25.640625 -107.609375 C 30.304688 -113.140625 36.253906 -117.453125 43.484375 -120.546875 C 50.722656 -123.640625 58.847656 -125.1875 67.859375 -125.1875 C 77.078125 -125.1875 84.972656 -123.625 91.546875 -120.5 C 98.117188 -117.382812 102.976562 -113.007812 106.125 -107.375 C 109.269531 -101.738281 110.289062 -95.164062 109.1875 -87.65625 L 84.921875 -87.65625 C 85.304688 -92.789062 83.828125 -96.789062 80.484375 -99.65625 C 77.140625 -102.53125 72.265625 -103.96875 65.859375 -103.96875 C 61.609375 -103.96875 57.828125 -103.347656 54.515625 -102.109375 C 51.203125 -100.867188 48.550781 -99.144531 46.5625 -96.9375 C 44.570312 -94.726562 43.328125 -92.210938 42.828125 -89.390625 C 42.335938 -86.515625 42.796875 -84.082031 44.203125 -82.09375 C 45.609375 -80.113281 47.703125 -78.488281 50.484375 -77.21875 C 53.273438 -75.945312 56.523438 -74.867188 60.234375 -73.984375 L 71.078125 -71.25 C 76.378906 -69.976562 81.144531 -68.347656 85.375 -66.359375 C 89.601562 -64.367188 93.125 -61.910156 95.9375 -58.984375 C 98.75 -56.054688 100.75 -52.617188 101.9375 -48.671875 C 103.125 -44.722656 103.28125 -40.207031 102.40625 -35.125 C 101.1875 -27.5625 98.335938 -21.015625 93.859375 -15.484375 C 89.390625 -9.960938 83.46875 -5.695312 76.09375 -2.6875 C 68.71875 0.320312 60.003906 1.828125 49.953125 1.828125 Z M 49.953125 1.828125 "/></g></g><g transform="translate(1086.007045, 812.553637)"><g><path d="M 55.015625 1.734375 C 44.578125 1.734375 35.753906 -0.207031 28.546875 -4.09375 C 21.335938 -7.988281 16.128906 -13.390625 12.921875 -20.296875 C 9.722656 -27.203125 8.867188 -35.128906 10.359375 -44.078125 L 23.53125 -123.4375 L 48.71875 -123.4375 L 35.703125 -44.484375 C 34.929688 -39.679688 35.25 -35.484375 36.65625 -31.890625 C 38.0625 -28.304688 40.421875 -25.519531 43.734375 -23.53125 C 47.054688 -21.539062 51.175781 -20.546875 56.09375 -20.546875 C 61.445312 -20.546875 66.332031 -21.675781 70.75 -23.9375 C 75.164062 -26.207031 78.835938 -29.273438 81.765625 -33.140625 C 84.691406 -37.003906 86.546875 -41.335938 87.328125 -46.140625 L 100.078125 -123.4375 L 125.34375 -123.4375 L 111.921875 -42.421875 C 110.429688 -33.472656 107.085938 -25.679688 101.890625 -19.046875 C 96.703125 -12.421875 90.085938 -7.300781 82.046875 -3.6875 C 74.015625 -0.0703125 65.003906 1.734375 55.015625 1.734375 Z M 55.015625 1.734375 "/></g></g><g transform="translate(1209.122025, 812.553637)"><g><path d="M 3.140625 0 L 23.609375 -123.4375 L 62.046875 -123.4375 L 72.65625 -66.53125 C 73.09375 -63.875 73.503906 -60.488281 73.890625 -56.375 C 74.285156 -52.257812 74.660156 -47.851562 75.015625 -43.15625 C 75.378906 -38.46875 75.695312 -33.925781 75.96875 -29.53125 C 76.25 -25.144531 76.441406 -21.375 76.546875 -18.21875 L 71.25 -18.3125 C 72.46875 -21.507812 73.929688 -25.316406 75.640625 -29.734375 C 77.347656 -34.160156 79.140625 -38.707031 81.015625 -43.375 C 82.898438 -48.039062 84.722656 -52.429688 86.484375 -56.546875 C 88.253906 -60.660156 89.75 -64.015625 90.96875 -66.609375 L 120.21875 -123.4375 L 158.8125 -123.4375 L 138.359375 0 L 113.09375 0 L 122.703125 -58.328125 C 123.140625 -61.140625 123.742188 -64.5625 124.515625 -68.59375 C 125.296875 -72.625 126.125 -76.945312 127 -81.5625 C 127.882812 -86.175781 128.769531 -90.785156 129.65625 -95.390625 C 130.539062 -100.003906 131.3125 -104.328125 131.96875 -108.359375 L 133.96875 -108.203125 C 132.082031 -103.671875 130.085938 -98.988281 127.984375 -94.15625 C 125.890625 -89.320312 123.820312 -84.640625 121.78125 -80.109375 C 119.738281 -75.578125 117.832031 -71.429688 116.0625 -67.671875 C 114.300781 -63.921875 112.8125 -60.773438 111.59375 -58.234375 L 81.359375 0 L 60.234375 0 L 48.96875 -58.328125 C 48.414062 -61.640625 47.78125 -66.03125 47.0625 -71.5 C 46.34375 -76.96875 45.609375 -82.929688 44.859375 -89.390625 C 44.117188 -95.847656 43.414062 -102.171875 42.75 -108.359375 L 45.0625 -108.203125 C 44.457031 -104.171875 43.820312 -99.820312 43.15625 -95.15625 C 42.5 -90.488281 41.851562 -85.847656 41.21875 -81.234375 C 40.582031 -76.617188 39.988281 -72.320312 39.4375 -68.34375 C 38.882812 -64.375 38.359375 -61.003906 37.859375 -58.234375 L 28.25 0 Z M 3.140625 0 "/></g></g><g transform="translate(1365.79122, 812.553637)"><g><path d="M 3.140625 0 L 23.609375 -123.4375 L 107.53125 -123.4375 L 104.0625 -102.3125 L 45.40625 -102.3125 L 40.515625 -72.734375 L 94.6875 -72.734375 L 91.21875 -52.03125 L 37.03125 -52.03125 L 31.984375 -21.125 L 90.71875 -21.125 L 87.234375 0 Z M 3.140625 0 "/></g></g></g><g fill="#1b1b1b" fill-opacity="1"><g transform="translate(1469.437933, 812.553637)"><g/></g></g></svg>