<svg width="1200" height="630" viewBox="0 0 1200 630" fill="none" xmlns="http://www.w3.org/2000/svg">
  <defs>
    <linearGradient id="bg" x1="80" y1="40" x2="1120" y2="590" gradientUnits="userSpaceOnUse">
      <stop stop-color="#111827"/>
      <stop offset="0.55" stop-color="#0F172A"/>
      <stop offset="1" stop-color="#1E293B"/>
    </linearGradient>
    <linearGradient id="accent" x1="174" y1="146" x2="926" y2="580" gradientUnits="userSpaceOnUse">
      <stop stop-color="#F97316"/>
      <stop offset="1" stop-color="#FBBF24"/>
    </linearGradient>
    <linearGradient id="card" x1="770" y1="106" x2="1122" y2="534" gradientUnits="userSpaceOnUse">
      <stop stop-color="#FFF7ED"/>
      <stop offset="1" stop-color="#FFFFFF"/>
    </linearGradient>
  </defs>

  <rect width="1200" height="630" rx="32" fill="url(#bg)"/>
  <circle cx="111" cy="100" r="182" fill="#F97316" fill-opacity="0.12"/>
  <circle cx="1027" cy="552" r="194" fill="#FBBF24" fill-opacity="0.12"/>
  <circle cx="876" cy="112" r="120" fill="#FB923C" fill-opacity="0.08"/>

  <rect x="72" y="84" width="148" height="148" rx="36" fill="url(#accent)"/>
  <path d="M159.5 124H115.5C109.149 124 104 129.149 104 135.5V202.5C104 208.851 109.149 214 115.5 214H164.5C170.851 214 176 208.851 176 202.5V142.5L159.5 124Z" stroke="white" stroke-width="11" stroke-linecap="round" stroke-linejoin="round"/>
  <path d="M159 124V143H176" stroke="white" stroke-width="11" stroke-linecap="round" stroke-linejoin="round"/>
  <path d="M122 166H158" stroke="white" stroke-width="11" stroke-linecap="round"/>
  <path d="M122 187H158" stroke="white" stroke-width="11" stroke-linecap="round"/>
  <circle cx="122" cy="146" r="5.5" fill="white"/>
  <circle cx="138" cy="146" r="5.5" fill="white"/>

  <rect x="72" y="264" width="184" height="40" rx="20" fill="#FFF7ED" fill-opacity="0.12" stroke="#FDBA74" stroke-opacity="0.35"/>
  <text x="164" y="290" fill="#FED7AA" font-family="Arial, Helvetica, sans-serif" font-size="20" font-weight="700" text-anchor="middle">ResumeZeus</text>

  <text x="72" y="366" fill="white" font-family="Arial, Helvetica, sans-serif" font-size="68" font-weight="800">
    <tspan x="72" dy="0">Build an ATS-ready</tspan>
    <tspan x="72" dy="78">resume faster</tspan>
  </text>

  <text x="72" y="498" fill="#CBD5E1" font-family="Arial, Helvetica, sans-serif" font-size="28" font-weight="500">
    <tspan x="72" dy="0">Create polished resumes, export PDF for free,</tspan>
    <tspan x="72" dy="40">and use 30 AI credits at signup.</tspan>
  </text>

  <rect x="72" y="544" width="196" height="42" rx="21" fill="#FFFFFF" fill-opacity="0.1" stroke="#FFFFFF" stroke-opacity="0.14"/>
  <text x="170" y="571" fill="#F8FAFC" font-family="Arial, Helvetica, sans-serif" font-size="19" font-weight="700" text-anchor="middle">Free PDF Export</text>
  <rect x="282" y="544" width="178" height="42" rx="21" fill="#FFFFFF" fill-opacity="0.1" stroke="#FFFFFF" stroke-opacity="0.14"/>
  <text x="371" y="571" fill="#F8FAFC" font-family="Arial, Helvetica, sans-serif" font-size="19" font-weight="700" text-anchor="middle">ATS Friendly</text>
  <rect x="474" y="544" width="170" height="42" rx="21" fill="#FFFFFF" fill-opacity="0.1" stroke="#FFFFFF" stroke-opacity="0.14"/>
  <text x="559" y="571" fill="#F8FAFC" font-family="Arial, Helvetica, sans-serif" font-size="19" font-weight="700" text-anchor="middle">30 AI Credits</text>

  <g transform="translate(732 84)">
    <rect x="18" y="24" width="362" height="450" rx="28" fill="#020617" fill-opacity="0.36"/>
    <rect x="0" y="0" width="362" height="450" rx="28" fill="url(#card)"/>
    <rect x="28" y="28" width="306" height="118" rx="22" fill="#FFF7ED"/>
    <circle cx="82" cy="87" r="34" fill="#FED7AA"/>
    <rect x="132" y="60" width="128" height="16" rx="8" fill="#0F172A"/>
    <rect x="132" y="90" width="168" height="12" rx="6" fill="#64748B"/>
    <rect x="132" y="116" width="118" height="12" rx="6" fill="#94A3B8"/>

    <rect x="28" y="170" width="194" height="230" rx="20" fill="#FFFFFF" stroke="#E2E8F0"/>
    <rect x="52" y="196" width="90" height="10" rx="5" fill="#0F172A"/>
    <rect x="52" y="224" width="132" height="8" rx="4" fill="#CBD5E1"/>
    <rect x="52" y="246" width="118" height="8" rx="4" fill="#CBD5E1"/>
    <rect x="52" y="280" width="112" height="10" rx="5" fill="#0F172A"/>
    <rect x="52" y="308" width="120" height="8" rx="4" fill="#CBD5E1"/>
    <rect x="52" y="330" width="104" height="8" rx="4" fill="#CBD5E1"/>
    <rect x="52" y="364" width="84" height="10" rx="5" fill="#0F172A"/>

    <rect x="242" y="170" width="92" height="110" rx="20" fill="#0F172A"/>
    <text x="288" y="208" fill="#CBD5E1" font-family="Arial, Helvetica, sans-serif" font-size="16" font-weight="700" text-anchor="middle">ATS Score</text>
    <text x="288" y="252" fill="#F59E0B" font-family="Arial, Helvetica, sans-serif" font-size="38" font-weight="800" text-anchor="middle">92</text>
    <text x="288" y="272" fill="#94A3B8" font-family="Arial, Helvetica, sans-serif" font-size="14" font-weight="700" text-anchor="middle">Excellent</text>

    <rect x="242" y="294" width="92" height="106" rx="20" fill="#FFF7ED" stroke="#FDBA74"/>
    <rect x="260" y="320" width="54" height="12" rx="6" fill="#F97316"/>
    <rect x="260" y="344" width="44" height="8" rx="4" fill="#FDBA74"/>
    <rect x="260" y="364" width="56" height="8" rx="4" fill="#FDBA74"/>

    <rect x="46" y="416" width="270" height="18" rx="9" fill="#E2E8F0"/>
    <rect x="46" y="416" width="214" height="18" rx="9" fill="url(#accent)"/>
  </g>
</svg>
