<svg xmlns="http://www.w3.org/2000/svg" xmlns:xlink="http://www.w3.org/1999/xlink" width="2000" zoomAndPan="magnify" viewBox="0 0 1500 1499.999933" height="2000" preserveAspectRatio="xMidYMid meet" version="1.0"><defs><clipPath id="55f9c5ced5"><path d="M 383.007812 168.625 L 1117.257812 168.625 L 1117.257812 1331.125 L 383.007812 1331.125 Z M 383.007812 168.625 " clip-rule="nonzero"/></clipPath><clipPath id="1e461e2bd3"><path d="M 0.0429688 1.066406 L 733.988281 1.066406 L 733.988281 1162.789062 L 0.0429688 1162.789062 Z M 0.0429688 1.066406 " clip-rule="nonzero"/></clipPath><clipPath id="ad9f610be5"><rect x="0" width="735" y="0" height="1164"/></clipPath></defs><g clip-path="url(#55f9c5ced5)"><g transform="matrix(1, 0, 0, 1, 383, 168)"><g clip-path="url(#ad9f610be5)"><g clip-path="url(#1e461e2bd3)"><path fill="#f97316" d="M 539.035156 514.421875 C 548.265625 526.859375 561.621094 534.933594 575.980469 538.914062 C 590.109375 542.867188 605.300781 542.839844 618.425781 539.109375 C 625.429688 537.136719 631.910156 534.070312 637.402344 529.992188 C 640.804688 527.464844 641.523438 522.664062 638.996094 519.261719 C 636.46875 515.859375 631.65625 515.140625 628.253906 517.667969 C 624.3125 520.605469 619.527344 522.835938 614.261719 524.316406 C 603.746094 527.308594 591.492188 527.324219 580.058594 524.132812 C 568.808594 521 558.417969 514.773438 551.375 505.289062 C 549.425781 502.675781 547.730469 499.796875 546.332031 496.664062 C 548.308594 496.183594 550.273438 495.6875 552.21875 495.207031 C 565.40625 491.90625 578.589844 488.601562 592.199219 490.519531 C 604.648438 492.285156 616.269531 499.542969 628.027344 506.898438 C 638.996094 513.742188 650.050781 520.648438 662.980469 524.273438 C 667.058594 525.417969 671.292969 523.03125 672.453125 518.9375 C 673.582031 514.859375 671.210938 510.625 667.117188 509.480469 C 656.332031 506.460938 646.195312 500.121094 636.144531 493.851562 C 623.015625 485.652344 610.042969 477.535156 594.300781 475.316406 C 577.742188 472.972656 563.117188 476.628906 548.492188 480.285156 C 535.476562 483.546875 522.460938 486.808594 509.09375 485.074219 C 504.886719 484.507812 501.046875 487.472656 500.496094 491.679688 C 499.945312 495.886719 502.910156 499.726562 507.117188 500.277344 C 536.492188 504.101562 521.925781 491.367188 539.035156 514.421875 Z M 515.855469 460.917969 C 511.929688 462.484375 509.996094 466.945312 511.5625 470.871094 C 513.132812 474.808594 517.578125 476.730469 521.515625 475.175781 C 540.714844 467.554688 555.242188 462.753906 569.894531 462.726562 C 584.492188 462.699219 600.003906 467.425781 621.5625 478.832031 C 632.996094 484.875 646.140625 491 658.675781 493.953125 C 667.863281 496.097656 676.773438 496.5625 684.636719 494.21875 C 693.558594 509.4375 697.496094 524.019531 701.519531 538.914062 C 704.242188 548.980469 706.996094 559.183594 711.441406 570.296875 C 714.71875 578.511719 718.132812 587.957031 718.585938 596.636719 C 718.96875 604.160156 717.003906 611.359375 710.230469 616.839844 C 708.589844 618.164062 706.65625 619.238281 704.398438 620.015625 C 702.140625 620.777344 699.554688 621.226562 696.648438 621.3125 C 685.15625 621.625 675.753906 620.863281 666.523438 619.082031 C 657.234375 617.289062 647.988281 614.453125 636.933594 610.667969 C 627.53125 607.4375 622.054688 603.414062 619.472656 599.050781 C 617.550781 595.804688 617.242188 592.191406 618.0625 588.535156 C 619.019531 584.226562 621.433594 579.796875 624.695312 575.6875 C 631.738281 566.808594 642.128906 559.847656 650.289062 558.464844 C 654.480469 557.773438 657.304688 553.808594 656.613281 549.628906 C 655.90625 545.449219 651.953125 542.613281 647.761719 543.304688 C 636.171875 545.28125 621.914062 554.527344 612.667969 566.1875 C 608.066406 572.003906 604.578125 578.523438 603.082031 585.230469 C 601.472656 592.472656 602.152344 599.8125 606.117188 606.632812 C 598.171875 607.28125 590.277344 609.128906 582.980469 612.136719 C 568.722656 618.023438 556.527344 628.34375 549.890625 643.054688 C 545.035156 653.824219 544.328125 664.3125 543.582031 675.324219 C 543.058594 683.199219 542.507812 691.375 540.261719 699.503906 C 537.722656 708.738281 531.636719 715.992188 525.484375 723.347656 C 519.328125 730.703125 513.101562 738.144531 509.023438 748.308594 C 507.144531 752.980469 506.226562 757.089844 506.03125 760.828125 C 504.5625 768.945312 502.429688 775.46875 499.550781 780.875 C 496.558594 786.492188 492.691406 791.011719 487.863281 794.921875 C 482.921875 798.914062 477.953125 802.515625 473.421875 805.804688 C 454.757812 819.285156 442.605469 828.09375 441.871094 854.605469 C 433.949219 846.039062 428.640625 835.335938 426.59375 824.085938 C 426.480469 823.507812 426.382812 822.929688 426.296875 822.351562 C 426.269531 822.082031 426.242188 821.800781 426.1875 821.53125 C 424.535156 809.503906 426.679688 796.996094 433.414062 786.011719 C 435.179688 783.160156 437.195312 780.4375 439.527344 777.867188 C 444 772.925781 449.296875 768.238281 454.574219 763.582031 C 458.359375 760.222656 462.15625 756.863281 465.640625 753.445312 C 493.664062 726.015625 490.289062 710.234375 483.261719 677.371094 C 482.414062 673.390625 481.496094 669.097656 480.492188 664.015625 C 478.277344 652.808594 478.953125 642.714844 481.199219 634.300781 C 483.0625 627.328125 485.914062 621.609375 489.019531 617.445312 C 493.496094 621.257812 498.011719 624.8125 502.515625 628.074219 C 508.742188 632.605469 515.007812 636.601562 521.105469 639.976562 C 524.832031 642.023438 529.507812 640.652344 531.554688 636.941406 C 533.585938 633.214844 532.230469 628.554688 528.503906 626.507812 C 523 623.457031 517.28125 619.800781 511.535156 615.636719 C 488.441406 598.894531 465.164062 574.148438 451.355469 547.046875 C 438.042969 520.914062 433.683594 492.640625 447.417969 467.765625 C 448.828125 465.222656 450.4375 462.683594 452.257812 460.171875 C 459.753906 449.824219 470.695312 440.914062 481.777344 431.894531 C 499.507812 417.46875 517.621094 402.730469 525.992188 380.15625 C 534.6875 380.382812 543.949219 378.957031 553.84375 377.050781 C 555.410156 377.234375 557.035156 376.953125 558.503906 376.132812 L 562.46875 375.34375 C 584.886719 370.796875 610.859375 365.546875 638.898438 373.523438 C 648.511719 376.261719 658.238281 379.972656 667.398438 384.675781 C 674.511719 388.316406 681.359375 392.578125 687.601562 397.464844 C 687.21875 405.46875 689.054688 416.042969 690.746094 425.839844 C 691.734375 431.585938 692.683594 437.03125 693.019531 440.789062 C 693.628906 447.378906 694.148438 454.863281 693.160156 461.636719 C 692.316406 467.46875 690.308594 472.804688 686.03125 476.40625 C 680.414062 481.148438 671.734375 481.203125 662.160156 478.972656 C 651.164062 476.390625 639.207031 470.800781 628.71875 465.238281 C 604.820312 452.589844 587.144531 447.367188 569.894531 447.394531 C 552.714844 447.421875 536.71875 452.644531 515.855469 460.917969 Z M 697.847656 486.414062 C 704.160156 480.203125 707.152344 472.242188 708.378906 463.8125 C 709.566406 455.554688 708.988281 446.957031 708.292969 439.40625 C 707.855469 434.578125 706.898438 429.058594 705.894531 423.253906 C 704.089844 412.808594 702.097656 401.375 703.140625 396.09375 C 703.199219 395.910156 703.242188 395.742188 703.269531 395.558594 C 704.539062 390.195312 707.800781 384.785156 711.386719 378.800781 C 713.179688 375.792969 715.058594 372.660156 716.777344 369.457031 C 717.992188 367.199219 719.121094 364.714844 720.152344 362.058594 C 724.683594 350.382812 726.957031 335.648438 726.6875 320.570312 C 726.6875 320.429688 726.6875 320.289062 726.675781 320.132812 C 726.535156 313.058594 725.8125 305.902344 724.515625 298.957031 C 720.632812 278.375 711.511719 259.386719 696.296875 248.855469 C 698.300781 240.882812 699.542969 232.355469 699.230469 224.027344 C 698.921875 215.625 697.058594 207.410156 692.894531 200.070312 C 691.441406 189.242188 683.449219 120.707031 705.839844 75.25 C 707.703125 71.453125 706.148438 66.851562 702.335938 64.972656 C 700.953125 64.28125 699.445312 64.070312 698.019531 64.238281 L 698.019531 64.222656 C 697.960938 64.222656 693.671875 64.71875 686.539062 66.328125 C 683.546875 56.261719 678.875 47.042969 671.308594 39.816406 C 664.136719 32.984375 654.609375 28.140625 641.789062 26.347656 C 647.226562 17.214844 649.101562 11.355469 649.117188 11.285156 C 649.34375 10.59375 649.484375 9.847656 649.511719 9.070312 C 649.640625 4.835938 646.324219 1.292969 642.085938 1.164062 C 576.21875 -0.96875 528.816406 28.972656 498.097656 58.957031 C 486.039062 62.460938 474.691406 65.777344 463.960938 68.953125 C 456.269531 71.210938 449 73.371094 442.109375 75.417969 C 456.847656 41.015625 460.703125 14.390625 460.730469 14.207031 L 460.714844 14.207031 C 460.957031 12.628906 460.714844 10.976562 459.925781 9.449219 C 457.949219 5.710938 453.304688 4.269531 449.550781 6.246094 C 382.972656 41.296875 342.023438 79.5 316.808594 113.28125 C 303.355469 117.386719 294.859375 119.984375 289.535156 121.621094 C 283.382812 123.515625 277.253906 125.390625 271.183594 127.253906 C 272.566406 87.261719 265.539062 58.902344 265.496094 58.703125 L 265.453125 58.703125 C 265.101562 57.164062 264.238281 55.710938 262.941406 54.609375 C 259.707031 51.886719 254.863281 52.308594 252.140625 55.542969 C 222.523438 90.75 202.210938 123.429688 188.472656 152.835938 C 171.589844 158.085938 161.425781 161.25 155.269531 163.167969 C 144.65625 166.472656 134.902344 169.519531 126.191406 172.246094 C 115.96875 147.214844 105.664062 132.011719 105.582031 131.886719 L 105.566406 131.898438 C 104.691406 130.558594 103.378906 129.484375 101.769531 128.90625 C 97.773438 127.480469 93.382812 129.554688 91.957031 133.539062 C 84.460938 154.316406 78.886719 173.726562 74.875 191.8125 C 74.765625 192.207031 74.664062 192.617188 74.609375 193.023438 C 51.246094 299.960938 82.910156 359.941406 95.9375 379.042969 C 83.65625 388.484375 75.765625 399.523438 71.925781 411.285156 C 31.636719 424.792969 9.796875 445.757812 2.738281 464.40625 C -0.0546875 471.800781 -0.632812 478.972656 0.777344 485.441406 C 2.273438 492.214844 5.917969 498.058594 11.476562 502.4375 C 14.160156 504.539062 17.292969 506.289062 20.851562 507.617188 C 10.84375 521.664062 -0.394531 547.144531 27.753906 568.644531 C 25.90625 570.167969 24.238281 571.652344 22.757812 573.105469 C 16.644531 579.144531 11.660156 586.148438 8.585938 593.40625 C 5.832031 599.871094 4.546875 606.574219 5.238281 613.070312 C 5.957031 619.902344 8.78125 626.367188 14.246094 631.886719 C 17.832031 635.527344 22.53125 638.71875 28.476562 641.289062 C 31.4375 642.671875 35.066406 642.050781 37.382812 639.539062 C 58.175781 616.894531 96.09375 612.109375 114.347656 611.164062 C 110.042969 625.179688 111.550781 639.070312 116.886719 652.117188 C 123.085938 667.261719 134.492188 681.125 147.847656 692.503906 C 156.160156 699.589844 165.265625 705.773438 174.371094 710.742188 C 173.90625 712.265625 173.441406 713.792969 172.960938 715.300781 C 171.25 720.78125 169.585938 726.1875 168.175781 731.550781 C 163.910156 747.558594 162.371094 762.777344 163.445312 776.652344 C 164.8125 794.695312 170.558594 810.5625 180.386719 823.183594 C 190.28125 835.886719 204.214844 845.148438 221.886719 849.847656 C 233.253906 852.871094 246.15625 853.984375 260.496094 852.882812 L 260.496094 852.855469 C 262.207031 852.730469 263.886719 852.039062 265.210938 850.753906 C 268.277344 847.832031 268.375 842.988281 265.453125 839.925781 C 223.058594 795.613281 243.683594 757.539062 261.300781 724.988281 C 263.335938 721.257812 265.324219 717.589844 266.75 714.851562 C 271.972656 704.800781 274.261719 694.523438 274.402344 685.234375 C 274.429688 683.453125 274.375 681.71875 274.246094 680.023438 C 277.054688 681.394531 280.019531 682.679688 283.125 683.863281 C 287.050781 685.375 291.242188 686.730469 295.703125 687.929688 C 297.03125 688.28125 298.472656 688.296875 299.898438 687.875 C 303.949219 686.660156 306.277344 682.382812 305.0625 678.316406 C 303.371094 672.667969 302.339844 667.402344 301.859375 662.433594 C 303.679688 646.582031 316.753906 642.515625 333.960938 637.152344 C 340.652344 635.078125 347.839844 632.832031 355.304688 629.796875 C 347.0625 652.453125 351.917969 669.535156 356.675781 686.207031 C 359.484375 696.0625 362.25 705.746094 361.476562 715.824219 C 360.78125 724.929688 355.628906 733.921875 350.351562 743.140625 C 345.648438 751.328125 340.863281 759.671875 338.167969 769.410156 C 336.066406 776.964844 335.769531 784.234375 336.503906 791.363281 C 337.195312 798.152344 338.832031 804.746094 340.75 811.324219 L 342.050781 815.8125 C 353.511719 855.328125 359.03125 874.371094 338.804688 908.503906 C 336.644531 912.160156 337.859375 916.859375 341.5 919.035156 C 342.316406 919.515625 343.207031 919.824219 344.097656 919.980469 C 354.386719 921.816406 363.195312 922.4375 370.75 922.085938 C 365.117188 925.671875 358.46875 928.550781 351.847656 931.414062 C 351.636719 931.5 351.4375 931.597656 351.238281 931.710938 C 342.488281 935.480469 333.792969 939.292969 326.4375 944.898438 C 313.972656 954.382812 307.632812 966.15625 301.335938 977.875 C 288.605469 1001.519531 276.011719 1024.925781 200.234375 1016.003906 C 196.027344 1015.523438 192.214844 1018.542969 191.722656 1022.765625 C 191.59375 1023.964844 191.734375 1025.121094 192.117188 1026.179688 C 193.484375 1030.925781 195.378906 1035.34375 197.734375 1039.449219 C 208.816406 1058.804688 230.175781 1072.0625 254.257812 1078.851562 C 277.804688 1085.484375 304.21875 1085.953125 326.011719 1079.867188 C 328.101562 1079.273438 330.148438 1078.640625 332.152344 1077.933594 C 331.941406 1081.421875 331.957031 1084.90625 332.226562 1088.367188 C 332.988281 1098.429688 335.78125 1108.328125 340.609375 1117.574219 C 350.71875 1136.957031 369.664062 1153.316406 397.203125 1162.394531 C 401.242188 1163.722656 405.589844 1161.53125 406.917969 1157.496094 C 407.523438 1155.644531 407.398438 1153.738281 406.691406 1152.074219 C 388.832031 1102.425781 428.570312 1081.25 469.625 1059.398438 L 471.105469 1058.609375 C 498.066406 1044.238281 522.886719 1030.796875 539.261719 1009.679688 C 555.988281 988.09375 563.316406 959.464844 554.140625 915.691406 C 553.265625 911.539062 549.199219 908.871094 545.050781 909.746094 C 540.898438 910.609375 538.246094 914.671875 539.105469 918.824219 C 547.207031 957.445312 541.179688 982.152344 527.121094 1000.292969 C 512.722656 1018.867188 489.332031 1031.515625 463.890625 1045.082031 L 462.394531 1045.875 C 419.4375 1068.742188 377.710938 1090.976562 387.929688 1142.023438 C 372.003906 1134.089844 360.742188 1123.007812 354.203125 1110.472656 C 350.394531 1103.160156 348.164062 1095.296875 347.554688 1087.222656 C 346.949219 1079.160156 347.964844 1070.917969 350.632812 1062.828125 C 356.871094 1043.855469 372.132812 1025.800781 396.640625 1013.023438 C 406.28125 1008 416.148438 1003.933594 425.988281 999.882812 C 454.347656 988.222656 482.496094 976.632812 510.335938 941.253906 C 554.5625 885.027344 514.9375 824.015625 500.015625 804.71875 C 505.269531 800.03125 509.585938 794.636719 513.074219 788.089844 C 513.722656 786.886719 514.332031 785.632812 514.910156 784.347656 C 515.871094 785.660156 516.871094 786.972656 517.886719 788.3125 C 523.335938 795.527344 529.492188 803.644531 530.933594 815.800781 C 531.425781 820.019531 535.25 823.027344 539.472656 822.53125 C 540.730469 822.390625 541.886719 821.941406 542.859375 821.277344 C 565.800781 807.726562 563.5 791.308594 561.199219 775.003906 C 559.785156 764.964844 558.390625 754.96875 567.464844 747.6875 C 568.738281 746.65625 570.148438 745.738281 571.660156 744.863281 C 570.050781 751.128906 569.765625 757.679688 570.488281 764.328125 C 572.125 779.421875 579.097656 794.78125 587.554688 807.710938 C 590.660156 812.453125 594.003906 816.929688 597.367188 820.9375 C 626.800781 856.144531 619.839844 894.769531 616.097656 908.234375 C 613.402344 915.011719 612.1875 922.410156 610.902344 930.371094 C 609.730469 937.5 608.476562 945.164062 605.667969 953.128906 C 605.410156 953.859375 605.144531 954.582031 604.847656 955.300781 C 602.6875 944.5 597.476562 933.703125 591.027344 922.664062 C 584.617188 911.695312 577.984375 899.933594 573.847656 888.414062 C 569.910156 877.476562 568.101562 866.449219 570.742188 856.019531 C 571.773438 851.910156 569.273438 847.730469 565.152344 846.699219 C 561.027344 845.683594 556.863281 848.183594 555.835938 852.304688 C 552.347656 866.039062 554.535156 879.988281 559.417969 893.597656 C 564.078125 906.613281 571.050781 918.964844 577.742188 930.425781 C 584.421875 941.832031 589.542969 952.703125 590.40625 962.753906 C 591.167969 971.648438 588.457031 980.359375 580.15625 988.957031 C 573.960938 995.125 567.28125 1001.136719 560.691406 1007.054688 C 553.308594 1013.703125 546.023438 1020.253906 539.316406 1027.140625 C 513.171875 1053.964844 499.464844 1081.644531 537.339844 1118.5625 C 540.390625 1121.527344 545.246094 1121.457031 548.195312 1118.40625 C 549.183594 1117.402344 549.835938 1116.175781 550.144531 1114.890625 L 550.160156 1114.890625 C 560.152344 1074.277344 585.265625 1067.304688 606.203125 1061.5 C 624.878906 1056.335938 640.902344 1051.886719 646.097656 1031.207031 C 647.71875 1024.769531 647.804688 1017.992188 647.875 1010.894531 C 648.003906 1000.460938 648.128906 989.222656 654.296875 979.679688 C 659.054688 972.3125 667.257812 965.097656 675.175781 958.109375 C 679.328125 954.453125 683.394531 950.867188 687.304688 946.945312 C 698.625 935.566406 704.144531 921.464844 705.078125 907.316406 C 705.9375 894.0625 702.71875 880.738281 696.4375 869.613281 C 699.953125 865.589844 702.859375 860.886719 704.90625 855.269531 C 708.761719 844.738281 707.898438 833.898438 704.921875 823.972656 C 701.238281 811.691406 694.207031 800.820312 689.238281 794.160156 C 689.972656 782.792969 686.132812 770.613281 681.375 755.578125 C 679.921875 750.945312 678.367188 746.035156 676.898438 740.9375 C 675.289062 735.347656 677.691406 728.683594 680.117188 721.9375 C 681.21875 718.859375 682.335938 715.78125 683.222656 712.535156 C 686.117188 701.890625 684.648438 694.933594 683.195312 687.972656 C 682.628906 685.320312 682.066406 682.648438 681.882812 679.941406 C 686.386719 670.820312 688.558594 661.53125 689.027344 653.074219 C 689.351562 647.160156 688.828125 641.570312 687.671875 636.6875 C 690.675781 636.742188 693.796875 636.742188 697.070312 636.644531 C 701.617188 636.515625 705.699219 635.796875 709.324219 634.554688 C 713.363281 633.199219 716.851562 631.238281 719.84375 628.808594 C 731.21875 619.605469 734.539062 607.929688 733.917969 595.859375 C 733.351562 584.949219 729.441406 574.035156 725.6875 564.648438 C 721.707031 554.652344 719.023438 544.730469 716.371094 534.945312 C 712.0625 519.007812 707.855469 503.410156 697.847656 486.414062 Z M 682.121094 242.136719 C 677.292969 240.683594 671.929688 239.710938 666.03125 239.34375 C 660.550781 239.003906 654.59375 239.1875 648.15625 239.992188 C 635.128906 213.945312 612.851562 197.882812 575.398438 206.394531 C 525.496094 217.757812 525.765625 251.1875 526.046875 287.027344 C 526.148438 301.117188 526.257812 315.644531 522.644531 328.617188 C 517.945312 321.246094 511.675781 314.980469 505.394531 308.699219 C 496.417969 299.734375 487.382812 290.699219 484.910156 277.839844 C 507.894531 267.066406 518.734375 256.238281 518.820312 256.15625 C 519.34375 255.648438 519.792969 255.054688 520.175781 254.390625 C 522.234375 250.679688 520.894531 246.003906 517.195312 243.945312 C 379.828125 167.320312 250.25 264.1875 249.882812 264.457031 L 249.882812 264.46875 C 248.597656 265.402344 247.59375 266.757812 247.085938 268.394531 C 245.84375 272.460938 248.117188 276.738281 252.167969 277.992188 C 290.183594 289.78125 323.78125 295.878906 353.144531 298.109375 C 351.832031 302.261719 350.902344 306.355469 350.292969 310.421875 C 349.773438 313.992188 349.503906 317.519531 349.449219 321.023438 C 240.070312 292.605469 145.714844 356.609375 145.390625 356.820312 L 145.402344 356.835938 C 144.0625 357.726562 142.988281 359.023438 142.410156 360.648438 C 140.984375 364.628906 143.058594 369.019531 147.042969 370.445312 C 196.945312 388.472656 239.421875 396.011719 274.824219 397.449219 L 208.648438 422.324219 C 207.660156 422.394531 206.671875 422.664062 205.738281 423.128906 C 205.34375 423.339844 204.976562 423.566406 204.625 423.832031 L 98.59375 463.6875 C 96.433594 460.734375 94.386719 457.757812 92.535156 454.664062 C 85.195312 442.480469 82.808594 429.804688 85.945312 418.089844 C 88.964844 406.808594 97.140625 396.136719 110.972656 387.214844 C 112.160156 386.453125 113.046875 385.4375 113.65625 384.277344 C 159.589844 309.714844 148.4375 235.179688 131.613281 186.660156 C 140.109375 183.992188 149.582031 181.039062 159.84375 177.835938 L 180.5 171.414062 C 146.984375 256.324219 168.625 309.515625 168.695312 309.742188 L 168.710938 309.726562 C 168.980469 310.421875 169.347656 311.082031 169.824219 311.691406 C 172.421875 315.023438 177.238281 315.613281 180.582031 313.015625 C 245.039062 262.664062 265.4375 196.046875 270.167969 143.628906 C 278.03125 141.214844 286.007812 138.761719 294.054688 136.289062 L 303.144531 133.496094 C 278.3125 174.519531 276.5625 205.449219 276.433594 209.710938 C 276.363281 210.601562 276.449219 211.519531 276.703125 212.4375 C 277.847656 216.515625 282.082031 218.902344 286.175781 217.757812 C 365.1875 195.328125 409.246094 140.976562 433.328125 94.066406 C 446.570312 90.113281 458.328125 86.613281 468.296875 83.675781 L 478.347656 80.710938 C 462.507812 100.40625 454.6875 116.230469 454.277344 117.050781 L 454.25 117.078125 L 454.25 117.105469 C 453.542969 118.53125 453.261719 120.167969 453.558594 121.847656 C 454.292969 126.042969 458.273438 128.835938 462.453125 128.101562 C 561.4375 110.511719 609.589844 69.375 631.78125 40.929688 C 645.335938 41.214844 654.511719 45.011719 660.722656 50.941406 C 666 55.964844 669.417969 62.757812 671.71875 70.335938 C 645.941406 78.425781 606.597656 96.539062 578.972656 135.824219 C 483.9375 112.460938 402.058594 166.683594 401.765625 166.867188 C 400.4375 167.742188 399.363281 169.027344 398.757812 170.621094 C 397.289062 174.601562 399.308594 179.007812 403.261719 180.488281 C 544.722656 233.371094 619.710938 190.003906 637.117188 177.582031 C 644.898438 181.210938 654.804688 186.433594 663.433594 192.363281 C 670.066406 196.90625 675.796875 201.75 678.734375 206.28125 C 678.875 206.550781 679.03125 206.789062 679.199219 207.027344 C 682.292969 212.195312 683.675781 218.25 683.902344 224.574219 C 684.128906 230.351562 683.394531 236.335938 682.121094 242.136719 Z M 654.269531 254.8125 C 658.136719 254.503906 661.753906 254.476562 665.125 254.671875 C 671.183594 255.054688 676.433594 256.199219 680.878906 257.917969 C 682.050781 258.386719 683.238281 258.921875 684.421875 259.570312 C 695.886719 265.726562 703.480469 278.714844 707.601562 293.859375 L 707.449219 293.804688 C 702.394531 291.855469 696.789062 291.433594 690.988281 292.605469 C 685.765625 293.664062 680.414062 295.964844 675.234375 299.578125 C 670.757812 302.699219 667.015625 306.285156 663.898438 309.996094 C 662.738281 291.277344 660 271.78125 654.269531 254.8125 Z M 711.371094 321.375 C 711.570312 334.261719 709.648438 346.726562 705.851562 356.523438 C 705.078125 358.5 704.214844 360.394531 703.253906 362.1875 C 702.605469 363.398438 701.957031 364.542969 701.308594 365.671875 C 697.949219 348.226562 689.519531 329.476562 668.796875 330.210938 C 671.761719 324.339844 676.546875 317.40625 684.015625 312.210938 C 687.5 309.785156 690.875 308.273438 693.996094 307.640625 C 696.929688 307.046875 699.640625 307.214844 701.984375 308.105469 C 704.214844 308.964844 706.234375 310.589844 707.871094 312.960938 C 709.425781 315.175781 710.609375 317.988281 711.371094 321.375 Z M 627.238281 623.417969 C 628.746094 624.050781 630.34375 624.644531 632.007812 625.210938 C 643.65625 629.203125 653.480469 632.226562 663.644531 634.171875 C 666.128906 634.652344 668.625 635.0625 671.183594 635.414062 C 673.046875 639.453125 674.074219 645.367188 673.695312 652.242188 C 673.398438 657.621094 672.199219 663.453125 669.828125 669.324219 C 668.640625 669 667.34375 668.632812 665.972656 668.222656 C 659.339844 666.304688 651.007812 663.875 641.507812 662.660156 C 627.941406 660.925781 618.894531 664.609375 612.511719 671.144531 C 606.582031 677.230469 603.578125 685.445312 601.417969 693.800781 C 600.964844 695.59375 600.683594 696.738281 600.414062 697.867188 C 598.707031 704.953125 596.929688 712.28125 592.367188 716.757812 C 590.660156 717.898438 589.050781 719.101562 587.527344 720.355469 C 584.195312 722.359375 580.285156 724.011719 576.375 725.691406 C 569.980469 728.402344 563.542969 731.140625 557.851562 735.714844 C 541.957031 748.460938 543.960938 762.75 545.980469 777.105469 C 547.152344 785.421875 548.339844 793.777344 543.15625 800.960938 C 539.882812 791.898438 534.800781 785.207031 530.140625 779.054688 C 524.15625 771.132812 519.089844 764.457031 523.28125 754.023438 C 526.429688 746.160156 531.878906 739.652344 537.269531 733.214844 C 544.484375 724.589844 551.613281 716.078125 555.058594 703.601562 C 557.738281 693.84375 558.347656 684.9375 558.925781 676.339844 C 559.5625 666.753906 560.183594 657.621094 563.894531 649.363281 C 568.808594 638.492188 577.996094 630.785156 588.8125 626.324219 C 600.839844 621.371094 614.785156 620.367188 627.238281 623.417969 Z M 666.917969 684.429688 C 667.242188 686.773438 667.695312 688.933594 668.148438 691.105469 C 669.246094 696.289062 670.335938 701.46875 668.429688 708.5 C 667.695312 711.179688 666.691406 713.976562 665.675781 716.769531 C 665.070312 718.480469 664.460938 720.171875 663.882812 721.894531 C 654.339844 716.871094 643.980469 712.605469 633.617188 710.417969 C 626.769531 708.992188 619.9375 708.457031 613.332031 709.175781 C 614.078125 706.621094 614.699219 704.039062 615.320312 701.46875 C 615.703125 699.929688 616.070312 698.417969 616.28125 697.585938 C 617.863281 691.429688 619.910156 685.542969 623.523438 681.847656 C 626.671875 678.613281 631.597656 676.847656 639.574219 677.878906 C 647.859375 678.9375 655.570312 681.167969 661.710938 682.960938 C 663.574219 683.496094 665.308594 684.003906 666.917969 684.429688 Z M 660.976562 737.789062 C 661.03125 740.191406 661.386719 742.632812 662.105469 745.160156 C 663.6875 750.664062 665.238281 755.578125 666.707031 760.207031 C 675.164062 786.972656 680.03125 802.402344 649.132812 824.128906 C 646.433594 817.507812 643.300781 811.140625 640.195312 804.832031 C 631.457031 787.101562 623.015625 769.949219 628.550781 749.691406 C 629.652344 745.609375 627.238281 741.390625 623.15625 740.289062 C 619.078125 739.171875 614.855469 741.574219 613.742188 745.667969 C 606.683594 771.558594 616.378906 791.25 626.433594 811.621094 C 636.992188 833.0625 647.972656 855.367188 635.15625 886.367188 L 634.773438 886.59375 C 635.621094 865.703125 631.246094 837.496094 609.140625 811.085938 C 606.1875 807.542969 603.222656 803.558594 600.429688 799.28125 C 593.117188 788.101562 587.101562 775.074219 585.761719 762.707031 C 584.5625 751.652344 587.257812 741.023438 596.574219 732.847656 C 598.367188 731.707031 600.117188 730.421875 601.769531 728.980469 C 610.070312 723.746094 620.148438 723.292969 630.484375 725.453125 C 640.789062 727.613281 651.363281 732.371094 660.976562 737.789062 Z M 654.15625 839.304688 C 668.738281 829.664062 677.859375 821.078125 683.152344 812.664062 C 685.863281 817.296875 688.488281 822.675781 690.195312 828.363281 C 692.328125 835.492188 693.019531 843.074219 690.480469 850.03125 C 685.199219 864.503906 669.066406 871.347656 654.242188 877.390625 C 657.6875 863.1875 656.980469 850.738281 654.15625 839.304688 Z M 658.984375 892.070312 C 667.539062 888.585938 676.53125 884.914062 684.464844 879.777344 C 688.390625 887.792969 690.339844 897.082031 689.730469 906.359375 C 689.039062 917.003906 684.902344 927.605469 676.417969 936.128906 C 673.1875 939.363281 669.136719 942.933594 665.011719 946.5625 C 656.359375 954.199219 647.394531 962.089844 641.4375 971.324219 C 632.839844 984.59375 632.6875 998.171875 632.542969 1010.765625 C 632.472656 1016.835938 632.417969 1022.636719 631.1875 1027.480469 C 628.167969 1039.492188 616.140625 1042.824219 602.109375 1046.722656 C 579.691406 1052.933594 553.25 1060.257812 539.359375 1097.738281 C 522.222656 1074.601562 532.613281 1056.011719 550.328125 1037.839844 C 556.441406 1031.558594 563.65625 1025.082031 570.980469 1018.472656 C 591.054688 1000.433594 611.917969 981.65625 620.164062 958.238281 C 623.398438 949.0625 624.765625 940.648438 626.050781 932.839844 C 628.648438 916.933594 630.75 904.015625 652.179688 894.867188 C 653.847656 894.160156 656.386719 893.132812 658.984375 892.070312 Z M 529.902344 364.785156 C 530.691406 359.292969 530.777344 354.335938 530.269531 349.804688 C 541.71875 330.4375 541.546875 308.230469 541.378906 286.914062 C 541.136719 257.453125 540.925781 229.984375 578.757812 221.371094 C 609.972656 214.269531 627.503906 229.601562 637.148438 252.867188 C 643.910156 269.128906 647.113281 289.132812 648.441406 308.628906 L 648.101562 308.148438 C 641.453125 299.183594 633.335938 290.683594 624.835938 285.378906 C 624.652344 285.265625 624.46875 285.152344 624.273438 285.050781 C 607.714844 274.886719 598.679688 278.277344 591.734375 289.359375 C 591.605469 289.554688 591.492188 289.765625 591.394531 289.980469 C 588.246094 295.246094 586.070312 302.019531 583.558594 309.8125 C 578.308594 326.117188 571.433594 347.476562 552.347656 361.734375 C 544.246094 363.300781 536.707031 364.570312 529.902344 364.785156 Z M 468.761719 268.378906 C 458.726562 272.390625 446.65625 276.171875 432.441406 279.011719 C 426.777344 280.140625 420.371094 281.15625 414.652344 281.863281 C 401.128906 283.542969 385.996094 284.316406 369.226562 283.753906 C 364.890625 283.597656 360.078125 283.328125 355.773438 283.003906 C 331.308594 281.210938 303.652344 276.597656 272.566406 267.984375 C 306.644531 247.613281 400.097656 202.894531 499.550781 252.019531 C 494.484375 255.605469 487.085938 260.179688 477.203125 264.738281 C 474.550781 265.980469 471.488281 267.28125 468.761719 268.378906 Z M 470.46875 283.894531 C 474.308594 299.324219 484.472656 309.488281 494.582031 319.582031 C 506.734375 331.738281 518.777344 343.777344 514.007812 366.433594 C 513.964844 366.6875 513.894531 366.929688 513.851562 367.183594 C 513.03125 368.199219 512.480469 369.441406 512.269531 370.839844 C 512.171875 371.53125 512.15625 372.222656 512.253906 372.902344 C 505.535156 392.777344 488.636719 406.527344 472.09375 419.996094 L 471.527344 420.460938 C 481.183594 384.136719 463.539062 359.488281 447.828125 337.523438 C 437.097656 322.53125 427.441406 309.050781 431.410156 294.566406 C 446.457031 291.800781 459.460938 288.015625 470.46875 283.894531 Z M 439.808594 451.148438 C 437.632812 454.15625 435.6875 457.234375 433.949219 460.367188 C 424.519531 477.433594 422.007812 495.546875 424.433594 513.574219 C 423.886719 518.0625 420.058594 539.875 396.792969 554.738281 C 403.0625 530.007812 393.363281 514.335938 382.242188 496.394531 C 379.105469 491.355469 375.859375 486.117188 372.867188 480.316406 C 370.566406 475.855469 369.097656 471.476562 368.378906 467.03125 C 367.671875 462.597656 367.726562 457.953125 368.476562 452.929688 L 368.503906 452.6875 C 369.675781 445.023438 371.457031 439.320312 373.121094 433.957031 C 375.703125 425.640625 378.074219 418.089844 378.132812 405.652344 C 378.160156 400.5 377.792969 395.445312 377.171875 390.492188 C 376.820312 387.722656 376.410156 385.027344 375.929688 382.402344 C 400.59375 372.800781 413.085938 362.03125 414.300781 360.945312 C 414.890625 360.4375 415.414062 359.828125 415.839844 359.136719 C 418.070312 355.539062 416.953125 350.808594 413.355469 348.578125 C 397.089844 338.511719 380.84375 331.03125 364.835938 325.609375 C 364.679688 321.347656 364.863281 317.027344 365.511719 312.652344 C 366.175781 308.175781 367.347656 303.617188 369.152344 298.957031 C 386.007812 299.464844 401.339844 298.6875 415.1875 297.023438 C 412.886719 315.078125 423.574219 330.027344 435.320312 346.417969 C 453.261719 371.503906 474.113281 400.625 439.808594 451.148438 Z M 437.195312 553.101562 L 437.648438 554.019531 C 447.558594 573.472656 461.914062 591.753906 477.683594 607.113281 C 473.066406 612.941406 468.875 620.890625 466.347656 630.402344 C 463.566406 640.835938 462.707031 653.289062 465.402344 666.964844 C 466.304688 671.554688 467.308594 676.214844 468.238281 680.5625 C 474.070312 707.863281 476.878906 720.976562 454.886719 742.503906 C 451.46875 745.835938 447.941406 748.957031 444.410156 752.089844 C 438.847656 757.015625 433.273438 761.945312 428.164062 767.578125 C 425.128906 770.9375 422.5 774.421875 420.3125 778.023438 C 412.039062 791.492188 409.148438 806.664062 410.714844 821.375 C 405.25 831.527344 404.09375 844.46875 402.921875 857.796875 C 402.355469 864.164062 401.792969 870.644531 400.734375 876.585938 C 397.585938 894.359375 389.128906 908.957031 357.550781 906.273438 C 374.503906 872.648438 368.390625 851.558594 356.773438 811.550781 L 355.476562 807.046875 C 353.796875 801.257812 352.355469 795.515625 351.761719 789.796875 C 351.210938 784.433594 351.421875 779.011719 352.960938 773.503906 C 355.09375 765.753906 359.441406 758.1875 363.691406 750.761719 C 369.847656 740.035156 375.859375 729.558594 376.804688 716.96875 C 377.78125 704.164062 374.644531 693.167969 371.46875 682 C 367.332031 667.488281 363.097656 652.625 370 634.300781 C 375.507812 619.691406 387.082031 610.824219 398.871094 601.804688 C 414.511719 589.804688 430.492188 577.550781 437.195312 553.101562 Z M 687.683594 378.703125 C 683.40625 375.921875 678.945312 373.367188 674.371094 371.023438 C 664.136719 365.773438 653.480469 361.679688 643.105469 358.742188 C 619.671875 352.066406 598.183594 353.492188 578.789062 356.652344 C 589.105469 342.675781 594.078125 327.234375 598.171875 314.515625 C 600.386719 307.609375 602.320312 301.625 604.480469 297.941406 C 604.59375 297.785156 604.691406 297.628906 604.789062 297.476562 C 606.613281 294.582031 609.660156 294.085938 616.226562 298.082031 C 616.378906 298.195312 616.550781 298.308594 616.71875 298.421875 C 623.46875 302.640625 630.160156 309.714844 635.777344 317.292969 C 642.695312 326.613281 647.820312 336.410156 649.457031 342.550781 L 649.46875 342.550781 C 650.203125 345.261719 652.40625 347.476562 655.355469 348.082031 C 656.851562 348.394531 658.351562 348.238281 659.675781 347.714844 C 680.570312 340.007812 686.246094 362.496094 687.683594 378.703125 Z M 419.242188 848.960938 C 423.347656 856.679688 428.785156 863.726562 435.363281 869.695312 C 438.707031 872.730469 442.320312 875.484375 446.160156 877.855469 C 447.613281 878.832031 449.394531 879.296875 451.257812 879.097656 C 455.476562 878.632812 458.511719 874.835938 458.046875 870.613281 C 454.390625 838.527344 464.722656 831.046875 482.425781 818.242188 C 484.21875 816.957031 486.070312 815.617188 488.003906 814.191406 C 501.03125 830.988281 535.800781 884.011719 498.238281 931.753906 C 472.871094 963.996094 446.613281 974.808594 420.144531 985.695312 C 410.050781 989.84375 399.914062 994.023438 389.539062 999.445312 C 361.21875 1014.210938 343.449219 1035.484375 336.023438 1058.015625 C 335.808594 1058.636719 335.613281 1059.269531 335.429688 1059.890625 C 331.265625 1061.996094 326.734375 1063.730469 321.933594 1065.074219 C 302.761719 1070.421875 279.386719 1069.957031 258.394531 1064.054688 C 238.265625 1058.382812 220.574219 1047.75 211.511719 1032.5625 C 286.160156 1038.460938 300.449219 1011.9375 314.859375 985.144531 C 320.394531 974.851562 325.972656 964.503906 335.699219 957.109375 C 341.585938 952.617188 349.417969 949.1875 357.324219 945.773438 C 357.523438 945.703125 357.71875 945.632812 357.917969 945.546875 C 374.417969 938.417969 391.019531 931.246094 398.023438 913.699219 C 408.792969 905.808594 413.410156 893.203125 415.878906 879.226562 C 417.066406 872.578125 417.671875 865.785156 418.253906 859.109375 C 418.5625 855.664062 418.859375 852.25 419.242188 848.960938 Z M 419.691406 555.699219 C 413.042969 571.578125 401.183594 580.671875 389.539062 589.59375 C 386.6875 591.765625 383.851562 593.953125 381.070312 596.214844 C 380.703125 596.425781 380.363281 596.695312 380.023438 596.988281 C 363.15625 611.953125 344.773438 617.683594 329.402344 622.46875 C 321.144531 625.054688 313.605469 627.398438 307.222656 630.574219 C 313.605469 616.710938 324.6875 604.628906 336.898438 591.316406 C 338.859375 589.183594 340.851562 587.007812 342.585938 585.089844 C 355.375 570.988281 366.640625 556.515625 372.597656 538.6875 C 374.828125 532.039062 376.28125 525.007812 376.777344 517.441406 C 383.667969 530.851562 386.53125 544.886719 376.015625 566.527344 C 375.167969 568.304688 374.984375 570.394531 375.675781 572.398438 C 377.074219 576.394531 381.449219 578.511719 385.460938 577.113281 C 400.746094 571.734375 411.773438 563.972656 419.691406 555.699219 Z M 621.972656 169.222656 C 599.863281 182.566406 536.675781 209.300781 424.351562 171.679688 C 456.59375 155.207031 538.878906 122.921875 621.972656 169.222656 Z M 639.742188 161.910156 C 624.652344 152.367188 609.535156 145.367188 594.640625 140.382812 C 622.042969 104.300781 660.285156 89.195312 682.335938 83.183594 L 682.574219 83.140625 C 682.925781 83.054688 683.28125 82.957031 683.617188 82.84375 C 684.550781 82.589844 685.453125 82.363281 686.316406 82.152344 C 674.046875 116.640625 674.1875 157.804688 675.785156 182.296875 C 674.570312 181.40625 673.34375 180.53125 672.085938 179.671875 C 661.257812 172.230469 648.539062 165.808594 639.742188 161.910156 Z M 292.964844 199.53125 C 295.4375 185.175781 303.058594 157.972656 326.464844 125.632812 C 327.285156 124.898438 327.933594 124.007812 328.371094 123.035156 C 350.394531 93.417969 385.671875 59.734375 442.167969 27.773438 C 438.835938 40.945312 432.625 61.0625 421.667969 83.238281 C 421.230469 83.847656 420.890625 84.539062 420.652344 85.257812 C 399.390625 127.4375 360.964844 176.523438 292.964844 199.53125 Z M 395.367188 355.832031 C 388.988281 359.914062 379.121094 365.304688 365.539062 370.175781 C 364.890625 370.316406 364.285156 370.527344 363.71875 370.8125 C 352.609375 374.679688 339.113281 378.152344 323.132812 380.296875 C 321.90625 380.113281 320.605469 380.242188 319.351562 380.722656 L 319.109375 380.804688 C 281.925781 385.183594 231.925781 382.375 167.878906 361.410156 C 197.933594 345.261719 272.625 313.144531 354.65625 338.46875 C 354.996094 338.597656 355.347656 338.710938 355.699219 338.792969 C 368.789062 342.917969 382.058594 348.492188 395.367188 355.832031 Z M 323.894531 395.417969 C 338.054688 393.554688 350.476562 390.730469 361.234375 387.46875 C 361.515625 389.136719 361.757812 390.785156 361.953125 392.410156 C 362.503906 396.742188 362.828125 401.148438 362.800781 405.59375 C 362.746094 415.605469 360.710938 422.167969 358.453125 429.382812 C 356.617188 435.296875 354.65625 441.59375 353.316406 450.375 L 353.273438 450.640625 C 352.300781 457.136719 352.257812 463.320312 353.230469 469.429688 C 353.796875 472.988281 354.699219 476.460938 355.957031 479.890625 C 363.296875 501.941406 362.941406 519.164062 358.042969 533.816406 C 352.960938 549.019531 342.8125 561.980469 331.222656 574.742188 C 329.148438 577.027344 327.355469 578.992188 325.589844 580.910156 C 301.113281 607.605469 280.613281 629.953125 287.09375 668.902344 C 268.867188 661.601562 257.265625 650.675781 251.238281 637.941406 C 245.039062 624.882812 244.558594 609.652344 248.710938 594.308594 C 249.488281 591.398438 250.445312 588.464844 251.574219 585.527344 C 259.707031 564.253906 274.585938 548.878906 288.476562 534.539062 C 306.011719 516.398438 322.144531 499.738281 324.445312 474.0625 C 324.8125 469.855469 321.679688 466.128906 317.472656 465.761719 C 313.25 465.40625 309.539062 468.527344 309.171875 472.75 C 307.367188 492.933594 293.050781 507.730469 277.464844 523.835938 C 265.761719 535.933594 253.398438 548.695312 244.136719 565.253906 C 235.355469 546.71875 244.785156 531.515625 255.289062 514.5625 C 270.804688 489.519531 288.292969 461.3125 267.964844 416.4375 Z M 180.003906 293.605469 C 175.699219 273.941406 171.210938 227.808594 200.304688 163.507812 C 200.796875 162.773438 201.164062 161.96875 201.390625 161.121094 C 212.980469 136.035156 229.652344 108.253906 253.398438 78.242188 C 255.261719 91.484375 257.066406 112.023438 255.414062 136.207031 C 255.261719 136.910156 255.203125 137.644531 255.261719 138.394531 C 251.675781 185.683594 234.777344 246.246094 180.003906 293.605469 Z M 629.875 16.496094 C 628.140625 19.644531 625.824219 23.414062 622.804688 27.632812 C 622.082031 28.296875 621.492188 29.085938 621.082031 29.992188 C 602.84375 54.257812 562.171875 91.046875 476.300781 109.695312 C 482.667969 99.796875 492.761719 85.921875 506.777344 71.890625 C 507.316406 71.480469 507.792969 71 508.203125 70.476562 C 534.742188 44.375 574.878906 18.1875 629.875 16.496094 Z M 106.117188 366.730469 C 93.484375 346.671875 68.511719 292.140625 89.5 196.511719 C 89.671875 196.019531 89.769531 195.523438 89.839844 195.015625 C 92.691406 182.226562 96.363281 168.703125 100.992188 154.445312 C 104.859375 161.699219 109.605469 171.527344 114.148438 183.382812 C 114.207031 183.59375 114.261719 183.808594 114.320312 184.003906 C 114.472656 184.511719 114.6875 184.992188 114.925781 185.445312 C 131.105469 228.570312 144.230469 297.148438 106.117188 366.730469 Z M 236.429688 582.167969 C 235.453125 584.863281 234.59375 587.589844 233.859375 590.339844 C 228.804688 609.074219 229.511719 627.960938 237.347656 644.507812 C 241.328125 652.933594 247.128906 660.683594 254.921875 667.433594 C 257.5625 671.582031 259.183594 677.792969 259.070312 685.050781 C 258.957031 692.050781 257.179688 699.914062 253.101562 707.75 C 251.097656 711.589844 249.445312 714.640625 247.777344 717.714844 C 229.371094 751.710938 208.109375 790.996094 243.457031 837.738281 C 237.121094 837.371094 231.234375 836.4375 225.796875 835 C 211.484375 831.1875 200.304688 823.816406 192.46875 813.753906 C 184.5625 803.589844 179.917969 790.542969 178.777344 775.523438 C 177.828125 763.269531 179.214844 749.761719 183.011719 735.445312 C 184.410156 730.222656 186.003906 725.058594 187.628906 719.804688 C 196.929688 689.820312 206.96875 657.394531 184.578125 608.085938 C 182.828125 604.21875 178.28125 602.496094 174.414062 604.230469 C 170.546875 605.980469 168.824219 610.527344 170.574219 614.394531 C 185.890625 648.121094 184.113281 673.332031 178.648438 695.554688 C 171.503906 691.417969 164.40625 686.449219 157.828125 680.84375 C 146.136719 670.878906 136.257812 659.003906 131.074219 646.34375 C 126.855469 636.035156 125.765625 625.109375 129.496094 614.199219 L 129.496094 614.171875 L 129.507812 614.128906 L 129.523438 614.097656 C 130.128906 612.335938 130.863281 610.585938 131.726562 608.820312 C 133.6875 604.8125 136.355469 600.757812 139.828125 596.695312 C 147.832031 587.304688 158.417969 577.988281 169.316406 568.402344 C 207.050781 535.230469 248.171875 499.0625 219.871094 434.507812 L 253.539062 421.859375 C 271.027344 460.042969 255.78125 484.664062 242.246094 506.5 C 227.296875 530.613281 214.109375 551.886719 236.429688 582.167969 Z M 108.53125 476.347656 L 205.429688 439.925781 C 229.566406 494.941406 192.851562 527.238281 159.167969 556.871094 C 152.308594 562.898438 145.574219 568.828125 139.363281 574.867188 C 146.898438 524.289062 127.304688 499.597656 108.53125 476.347656 Z M 69.203125 428.578125 C 69.214844 439.96875 72.6875 451.53125 79.367188 462.613281 C 82.515625 467.851562 86.085938 472.734375 89.828125 477.535156 L 89.925781 477.660156 C 91.972656 480.285156 94.0625 482.871094 96.179688 485.480469 C 104.367188 495.632812 112.78125 506.050781 118.46875 519.363281 C 106.355469 524.429688 83.53125 534.804688 62.695312 546.210938 C 55.015625 550.417969 47.5625 554.796875 40.925781 559.113281 C 14.105469 541.128906 31.609375 517.78125 38.230469 510.453125 C 45.921875 510.425781 54.632812 508.957031 64.191406 505.753906 C 68.214844 504.414062 70.375 500.0625 69.03125 496.042969 C 67.691406 492.019531 63.34375 489.859375 59.320312 491.199219 C 52.105469 493.628906 45.683594 494.871094 40.105469 495.125 C 38.144531 495.222656 34.289062 495.082031 32.355469 494.800781 C 27.640625 494.136719 23.816406 492.582031 20.980469 490.351562 C 18.253906 488.207031 16.476562 485.382812 15.753906 482.136719 C 14.980469 478.578125 15.386719 474.371094 17.109375 469.796875 C 22.347656 455.976562 38.78125 440.210938 69.203125 428.578125 Z M 123.183594 534 C 126.699219 549.769531 126.375 569.40625 119.148438 595.648438 C 102.953125 596.042969 57.710938 599.53125 30.226562 624.984375 C 28.207031 623.785156 26.527344 622.5 25.1875 621.128906 C 22.335938 618.25 20.878906 614.945312 20.511719 611.503906 C 20.117188 607.703125 20.949219 603.570312 22.714844 599.417969 C 25.015625 594.011719 28.8125 588.703125 33.527344 584.058594 C 40.980469 576.691406 54.945312 567.9375 70.035156 559.679688 C 89.953125 548.78125 111.539062 538.914062 123.183594 534 " fill-opacity="1" fill-rule="nonzero"/></g></g></g></g></svg>