<svg xmlns="http://www.w3.org/2000/svg" xmlns:xlink="http://www.w3.org/1999/xlink" width="2000" zoomAndPan="magnify" viewBox="0 0 1500 749.999995" height="1000" preserveAspectRatio="xMidYMid meet" version="1.0"><defs><g/><clipPath id="d814cd6661"><rect x="0" width="1426" y="0" height="670"/></clipPath><clipPath id="a6e3a096ae"><path d="M 831.550781 141.5 L 899.347656 141.5 L 899.347656 209.300781 L 831.550781 209.300781 Z M 831.550781 141.5 " clip-rule="nonzero"/></clipPath><clipPath id="daa024a94a"><path d="M 865.449219 141.5 C 846.726562 141.5 831.550781 156.679688 831.550781 175.398438 C 831.550781 194.121094 846.726562 209.300781 865.449219 209.300781 C 884.171875 209.300781 899.347656 194.121094 899.347656 175.398438 C 899.347656 156.679688 884.171875 141.5 865.449219 141.5 Z M 865.449219 141.5 " clip-rule="nonzero"/></clipPath><clipPath id="db44c6b0fc"><path d="M 0.550781 0.5 L 68.347656 0.5 L 68.347656 68.300781 L 0.550781 68.300781 Z M 0.550781 0.5 " clip-rule="nonzero"/></clipPath><clipPath id="de7bda3c08"><path d="M 34.449219 0.5 C 15.726562 0.5 0.550781 15.679688 0.550781 34.398438 C 0.550781 53.121094 15.726562 68.300781 34.449219 68.300781 C 53.171875 68.300781 68.347656 53.121094 68.347656 34.398438 C 68.347656 15.679688 53.171875 0.5 34.449219 0.5 Z M 34.449219 0.5 " clip-rule="nonzero"/></clipPath><clipPath id="c030661f98"><rect x="0" width="69" y="0" height="69"/></clipPath><clipPath id="f4c266aab3"><path d="M 925.378906 141.5 L 993.175781 141.5 L 993.175781 209.300781 L 925.378906 209.300781 Z M 925.378906 141.5 " clip-rule="nonzero"/></clipPath><clipPath id="b7e7fed7c1"><path d="M 959.277344 141.5 C 940.554688 141.5 925.378906 156.679688 925.378906 175.398438 C 925.378906 194.121094 940.554688 209.300781 959.277344 209.300781 C 978 209.300781 993.175781 194.121094 993.175781 175.398438 C 993.175781 156.679688 978 141.5 959.277344 141.5 Z M 959.277344 141.5 " clip-rule="nonzero"/></clipPath><clipPath id="2808d70561"><path d="M 0.378906 0.5 L 68.175781 0.5 L 68.175781 68.300781 L 0.378906 68.300781 Z M 0.378906 0.5 " clip-rule="nonzero"/></clipPath><clipPath id="ab2a1b08b2"><path d="M 34.277344 0.5 C 15.554688 0.5 0.378906 15.679688 0.378906 34.398438 C 0.378906 53.121094 15.554688 68.300781 34.277344 68.300781 C 53 68.300781 68.175781 53.121094 68.175781 34.398438 C 68.175781 15.679688 53 0.5 34.277344 0.5 Z M 34.277344 0.5 " clip-rule="nonzero"/></clipPath><clipPath id="02ebff71c9"><rect x="0" width="69" y="0" height="69"/></clipPath></defs><g transform="matrix(1, 0, 0, 1, 37, 40)"><g clip-path="url(#d814cd6661)"><g fill="#000000" fill-opacity="1"><g transform="translate(0.377682, 520.575427)"><g><path d="M 32.75 0 L 32.75 -29.21875 L 226.234375 -313.90625 C 233.984375 -325.445312 242.097656 -337.035156 250.578125 -348.671875 C 259.054688 -360.304688 267.535156 -371.804688 276.015625 -383.171875 L 280.625 -370.1875 C 264.75 -369.644531 248.960938 -369.285156 233.265625 -369.109375 C 217.566406 -368.929688 201.78125 -368.84375 185.90625 -368.84375 L 34.359375 -368.84375 L 34.359375 -403.203125 L 309.03125 -403.203125 L 309.03125 -373.703125 L 117.4375 -91.1875 C 109.320312 -79.28125 100.929688 -67.375 92.265625 -55.46875 C 83.609375 -43.5625 74.863281 -31.75 66.03125 -20.03125 L 61.421875 -32.75 C 76.941406 -33.46875 92.457031 -33.867188 107.96875 -33.953125 C 123.488281 -34.046875 139.003906 -34.09375 154.515625 -34.09375 L 310.921875 -34.09375 L 310.921875 0 Z M 32.75 0 "/></g></g></g><g fill="#000000" fill-opacity="1"><g transform="translate(343.219184, 520.575427)"><g><path d="M 50.875 0 L 50.875 -403.203125 L 290.90625 -403.203125 L 290.90625 -369.109375 L 88.765625 -369.109375 L 88.765625 -220.8125 L 277.109375 -220.8125 L 277.109375 -186.453125 L 88.765625 -186.453125 L 88.765625 -34.09375 L 293.609375 -34.09375 L 293.609375 0 Z M 50.875 0 "/></g></g></g><g fill="#000000" fill-opacity="1"><g transform="translate(670.366278, 520.575427)"><g><path d="M 201.0625 6.21875 C 170.75 6.21875 144.046875 -0.00390625 120.953125 -12.453125 C 97.867188 -24.898438 79.875 -41.898438 66.96875 -63.453125 C 54.070312 -85.015625 47.625 -109.503906 47.625 -136.921875 L 47.625 -403.203125 L 85.78125 -403.203125 L 85.78125 -139.640625 C 85.78125 -118.523438 90.5625 -99.625 100.125 -82.9375 C 109.6875 -66.25 123.125 -53.171875 140.4375 -43.703125 C 157.757812 -34.234375 177.96875 -29.5 201.0625 -29.5 C 224.332031 -29.5 244.582031 -34.234375 261.8125 -43.703125 C 279.039062 -53.171875 292.4375 -66.25 302 -82.9375 C 311.5625 -99.625 316.34375 -118.523438 316.34375 -139.640625 L 316.34375 -403.203125 L 354.21875 -403.203125 L 354.21875 -136.921875 C 354.21875 -109.503906 347.769531 -85.015625 334.875 -63.453125 C 321.976562 -41.898438 304.023438 -24.898438 281.015625 -12.453125 C 258.015625 -0.00390625 231.363281 6.21875 201.0625 6.21875 Z M 201.0625 6.21875 "/></g></g></g><g fill="#000000" fill-opacity="1"><g transform="translate(1072.197065, 520.575427)"><g><path d="M 172.640625 6.765625 C 144.859375 6.765625 120.6875 2.078125 100.125 -7.296875 C 79.5625 -16.679688 63.457031 -29.804688 51.8125 -46.671875 C 40.175781 -63.546875 33.726562 -83.164062 32.46875 -105.53125 L 71.171875 -105.53125 C 72.429688 -88.9375 77.523438 -74.863281 86.453125 -63.3125 C 95.390625 -51.769531 107.34375 -42.976562 122.3125 -36.9375 C 137.289062 -30.894531 154.066406 -27.875 172.640625 -27.875 C 192.847656 -27.875 210.664062 -31.207031 226.09375 -37.875 C 241.519531 -44.550781 253.648438 -53.890625 262.484375 -65.890625 C 271.328125 -77.890625 275.75 -91.828125 275.75 -107.703125 C 275.75 -120.867188 272.410156 -132.003906 265.734375 -141.109375 C 259.054688 -150.222656 249.445312 -157.984375 236.90625 -164.390625 C 224.375 -170.796875 209.359375 -176.523438 191.859375 -181.578125 L 144.78125 -195.109375 C 111.21875 -204.671875 85.773438 -217.882812 68.453125 -234.75 C 51.140625 -251.613281 42.484375 -272.859375 42.484375 -298.484375 C 42.484375 -320.304688 48.253906 -339.515625 59.796875 -356.109375 C 71.347656 -372.710938 87.085938 -385.660156 107.015625 -394.953125 C 126.953125 -404.242188 149.550781 -408.890625 174.8125 -408.890625 C 200.425781 -408.890625 222.929688 -404.195312 242.328125 -394.8125 C 261.722656 -385.4375 277.054688 -372.492188 288.328125 -355.984375 C 299.609375 -339.472656 305.695312 -320.578125 306.59375 -299.296875 L 269.25 -299.296875 C 267.269531 -322.378906 257.570312 -340.6875 240.15625 -354.21875 C 222.75 -367.75 200.609375 -374.515625 173.734375 -374.515625 C 155.328125 -374.515625 139.039062 -371.3125 124.875 -364.90625 C 110.71875 -358.507812 99.671875 -349.71875 91.734375 -338.53125 C 83.796875 -327.34375 79.828125 -314.535156 79.828125 -300.109375 C 79.828125 -286.753906 83.523438 -275.472656 90.921875 -266.265625 C 98.316406 -257.066406 108.101562 -249.398438 120.28125 -243.265625 C 132.457031 -237.140625 145.671875 -232 159.921875 -227.84375 L 202.953125 -215.671875 C 217.203125 -211.703125 230.910156 -206.785156 244.078125 -200.921875 C 257.253906 -195.054688 269.03125 -187.882812 279.40625 -179.40625 C 289.78125 -170.925781 297.988281 -160.820312 304.03125 -149.09375 C 310.070312 -137.375 313.09375 -123.488281 313.09375 -107.4375 C 313.09375 -85.601562 307.410156 -66.070312 296.046875 -48.84375 C 284.679688 -31.613281 268.535156 -18.035156 247.609375 -8.109375 C 226.679688 1.804688 201.691406 6.765625 172.640625 6.765625 Z M 172.640625 6.765625 "/></g></g></g></g></g><g clip-path="url(#a6e3a096ae)"><g clip-path="url(#daa024a94a)"><g transform="matrix(1, 0, 0, 1, 831, 141)"><g clip-path="url(#c030661f98)"><g clip-path="url(#db44c6b0fc)"><g clip-path="url(#de7bda3c08)"><path fill="#eb5b21" d="M 0.550781 0.5 L 68.347656 0.5 L 68.347656 68.300781 L 0.550781 68.300781 Z M 0.550781 0.5 " fill-opacity="1" fill-rule="nonzero"/></g></g></g></g></g></g><g clip-path="url(#f4c266aab3)"><g clip-path="url(#b7e7fed7c1)"><g transform="matrix(1, 0, 0, 1, 925, 141)"><g clip-path="url(#02ebff71c9)"><g clip-path="url(#2808d70561)"><g clip-path="url(#ab2a1b08b2)"><path fill="#3b82f6" d="M 0.378906 0.5 L 68.175781 0.5 L 68.175781 68.300781 L 0.378906 68.300781 Z M 0.378906 0.5 " fill-opacity="1" fill-rule="nonzero"/></g></g></g></g></g></g></svg>