<svg xmlns="http://www.w3.org/2000/svg" xmlns:xlink="http://www.w3.org/1999/xlink" width="2000" zoomAndPan="magnify" viewBox="0 0 1500 749.999995" height="1000" preserveAspectRatio="xMidYMid meet" version="1.0"><defs><clipPath id="7d18bb48a0"><path d="M 755.25 126.53125 L 1248.558594 126.53125 L 1248.558594 619.835938 L 755.25 619.835938 Z M 755.25 126.53125 " clip-rule="nonzero"/></clipPath><clipPath id="bd006b385a"><path d="M 1001.902344 126.53125 C 865.679688 126.53125 755.25 236.960938 755.25 373.183594 C 755.25 509.40625 865.679688 619.835938 1001.902344 619.835938 C 1138.125 619.835938 1248.558594 509.40625 1248.558594 373.183594 C 1248.558594 236.960938 1138.125 126.53125 1001.902344 126.53125 Z M 1001.902344 126.53125 " clip-rule="nonzero"/></clipPath><clipPath id="e553827bbf"><path d="M 0.25 0.53125 L 493.558594 0.53125 L 493.558594 493.835938 L 0.25 493.835938 Z M 0.25 0.53125 " clip-rule="nonzero"/></clipPath><clipPath id="03c152600d"><path d="M 246.902344 0.53125 C 110.679688 0.53125 0.25 110.960938 0.25 247.183594 C 0.25 383.40625 110.679688 493.835938 246.902344 493.835938 C 383.125 493.835938 493.558594 383.40625 493.558594 247.183594 C 493.558594 110.960938 383.125 0.53125 246.902344 0.53125 Z M 246.902344 0.53125 " clip-rule="nonzero"/></clipPath><clipPath id="2518067a64"><rect x="0" width="494" y="0" height="494"/></clipPath><clipPath id="479e921b84"><path d="M 251.441406 130.164062 L 744.75 130.164062 L 744.75 623.46875 L 251.441406 623.46875 Z M 251.441406 130.164062 " clip-rule="nonzero"/></clipPath><clipPath id="6f637aecd5"><path d="M 498.097656 130.164062 C 361.875 130.164062 251.441406 240.59375 251.441406 376.816406 C 251.441406 513.039062 361.875 623.46875 498.097656 623.46875 C 634.320312 623.46875 744.75 513.039062 744.75 376.816406 C 744.75 240.59375 634.320312 130.164062 498.097656 130.164062 Z M 498.097656 130.164062 " clip-rule="nonzero"/></clipPath><clipPath id="da47f4b6a7"><path d="M 0.441406 0.164062 L 493.75 0.164062 L 493.75 493.46875 L 0.441406 493.46875 Z M 0.441406 0.164062 " clip-rule="nonzero"/></clipPath><clipPath id="52c2fcc41a"><path d="M 247.097656 0.164062 C 110.875 0.164062 0.441406 110.59375 0.441406 246.816406 C 0.441406 383.039062 110.875 493.46875 247.097656 493.46875 C 383.320312 493.46875 493.75 383.039062 493.75 246.816406 C 493.75 110.59375 383.320312 0.164062 247.097656 0.164062 Z M 247.097656 0.164062 " clip-rule="nonzero"/></clipPath><clipPath id="156089070f"><rect x="0" width="494" y="0" height="494"/></clipPath></defs><rect x="-150" width="1800" fill="#ffffff" y="-74.999999" height="899.999994" fill-opacity="1"/><rect x="-150" width="1800" fill="#efeeeb" y="-74.999999" height="899.999994" fill-opacity="1"/><g clip-path="url(#7d18bb48a0)"><g clip-path="url(#bd006b385a)"><g transform="matrix(1, 0, 0, 1, 755, 126)"><g clip-path="url(#2518067a64)"><g clip-path="url(#e553827bbf)"><g clip-path="url(#03c152600d)"><path fill="#eb5b21" d="M 0.25 0.53125 L 493.558594 0.53125 L 493.558594 493.835938 L 0.25 493.835938 Z M 0.25 0.53125 " fill-opacity="1" fill-rule="nonzero"/></g></g></g></g></g></g><g clip-path="url(#479e921b84)"><g clip-path="url(#6f637aecd5)"><g transform="matrix(1, 0, 0, 1, 251, 130)"><g clip-path="url(#156089070f)"><g clip-path="url(#da47f4b6a7)"><g clip-path="url(#52c2fcc41a)"><path fill="#3b82f6" d="M 0.441406 0.164062 L 493.75 0.164062 L 493.75 493.46875 L 0.441406 493.46875 Z M 0.441406 0.164062 " fill-opacity="1" fill-rule="nonzero"/></g></g></g></g></g></g></svg>